<svg xmlns="http://www.w3.org/2000/svg" viewBox="0 0 420 128" width="420" height="128" role="img" aria-label="BetterSCAD — local-first parametric CAD">
  <title>BetterSCAD</title>
  <defs>
    <radialGradient id="bs-cavity" cx="0.72" cy="0.78" r="0.95">
      <stop offset="0" stop-color="#2AA7C4"/>
      <stop offset="0.55" stop-color="#12718A"/>
      <stop offset="1" stop-color="#083C4C"/>
    </radialGradient>
    <clipPath id="bs-body">
      <path d="M 64 12 L 109.03 38 L 109.03 90 L 64 116 L 18.97 90 L 18.97 38 Z"/>
    </clipPath>
    <mask id="bs-cut">
      <rect x="0" y="0" width="128" height="128" fill="#fff"/>
      <circle cx="64" cy="84" r="21" fill="#000"/>
    </mask>
  </defs>

  <g clip-path="url(#bs-body)">
    <circle cx="64" cy="84" r="21" fill="url(#bs-cavity)"/>
    <path d="M 45.5 74 A 21 21 0 0 1 82.5 74" fill="none" stroke="#5FE3F7" stroke-width="3" stroke-linecap="round" opacity="0.9"/>
    <g mask="url(#bs-cut)">
      <path d="M 64 12 L 109.03 38 L 64 64 L 18.97 38 Z" fill="#FFC46B"/>
      <path d="M 18.97 38 L 64 64 L 64 116 L 18.97 90 Z" fill="#E8862A"/>
      <path d="M 109.03 38 L 64 64 L 64 116 L 109.03 90 Z" fill="#BE5A10"/>
    </g>
  </g>

  <g font-family="'Inter', 'SF Pro Display', -apple-system, 'Segoe UI', Roboto, Helvetica, Arial, sans-serif">
    <!-- One text element with tspans, so the two halves never drift apart when
         the viewer substitutes a different font. -->
    <text x="130" y="68" font-size="40" font-weight="700" letter-spacing="-0.8" fill="#12202E"
      >Better<tspan fill="#E8862A">SCAD</tspan></text>
    <text x="132" y="93" font-size="11.5" font-weight="600" letter-spacing="1.9" fill="#5C7285">LOCAL-FIRST PARAMETRIC CAD</text>
  </g>
</svg>
